<svg version="1.1" id="_x32_" xmlns="http://www.w3.org/2000/svg" xmlns:xlink="http://www.w3.org/1999/xlink" x="0px" y="0px" viewBox="0 0 512 512" style="width: 256px; height: 256px; opacity: 1;" xml:space="preserve">
<style type="text/css">
	.st0{fill:#4B4B4B;}
</style>
<g>
	<path class="st0" d="M223.297,131.419c13.891-2.636,23.009-16.014,20.381-29.907c-2.628-13.876-16.007-23.009-29.899-20.381
		c-13.876,2.644-23.009,16.023-20.38,29.907C196.026,124.921,209.413,134.046,223.297,131.419z" style="fill: rgb(75, 75, 75);"></path>
	<path class="st0" d="M175.718,132.412c-10.655-9.285-26.823-8.195-36.116,2.46c-9.276,10.656-8.172,26.823,2.468,36.108
		c10.663,9.285,26.822,8.18,36.108-2.476C187.462,157.865,186.357,141.698,175.718,132.412z" style="fill: rgb(75, 75, 75);"></path>
	<path class="st0" d="M358.056,126.54c-13.891-2.612-27.271,6.497-29.898,20.397c-2.628,13.876,6.498,27.27,20.373,29.883
		c13.899,2.644,27.279-6.489,29.906-20.365C381.065,142.562,371.948,129.184,358.056,126.54z" style="fill: rgb(75, 75, 75);"></path>
	<path class="st0" d="M310.461,125.555c10.655-9.286,11.761-25.453,2.475-36.116v0.016c-9.293-10.655-25.452-11.752-36.107-2.459
		c-10.647,9.276-11.745,25.436-2.467,36.091C283.655,133.734,299.822,134.84,310.461,125.555z" style="fill: rgb(75, 75, 75);"></path>
	<path class="st0" d="M254.157,166.437c-40.442,0-85.064,46.674-72.142,79.874c12.474,32.062,51.441,18.851,72.142,18.851
		c20.71,0,59.677,13.21,72.151-18.851C339.23,213.111,294.607,166.437,254.157,166.437z" style="fill: rgb(75, 75, 75);"></path>
	<path class="st0" d="M425.376,101.816c-12.674-29.946-33.784-55.375-60.374-73.336C338.404,10.51,306.223,0,271.766,0h-31.54
		c-22.961,0-44.945,4.655-64.901,13.099c-29.946,12.682-55.35,33.792-73.32,60.382c-17.97,26.574-28.488,58.748-28.488,93.229V512
		h364.967V166.709C438.484,143.749,433.82,121.781,425.376,101.816z M404.05,406.73c-21.558-7.338-63.034-10.431-94.623,1.418
		c-34.657,13.003-62.817,19.508-75.828,17.337c-12.994-2.17-17.328,6.498,6.506,15.158c23.834,8.668,77.991-2.155,116.991,0
		c20.036,1.113,36.611,9.83,46.954,16.872v20.06H107.949v-96.962c9.278-7.194,28.344-19.435,52.355-20.773
		c39-2.163,93.156,8.66,116.982,0c23.834-8.661,19.5-17.329,6.506-15.166c-13.003,2.18-41.17-4.326-75.828-17.336
		c-34.496-12.931-80.754-8.06-100.014,0.728V166.709c0-18.298,3.702-35.667,10.391-51.481c10.03-23.722,26.823-43.95,47.932-58.211
		c21.134-14.26,46.514-22.576,73.954-22.576h31.54c18.306,0,35.666,3.686,51.49,10.383c23.722,10.03,43.95,26.806,58.211,47.94
		c14.26,21.118,22.576,46.498,22.584,73.945V406.73z" style="fill: rgb(75, 75, 75);"></path>
</g>
</svg>
